<?xml version="1.0" encoding="utf-8"?>
<!-- Generator: Adobe Illustrator 16.0.0, SVG Export Plug-In . SVG Version: 6.00 Build 0)  -->
<!DOCTYPE svg PUBLIC "-//W3C//DTD SVG 1.1//EN" "http://www.w3.org/Graphics/SVG/1.1/DTD/svg11.dtd">
<svg version="1.1" id="Layer_1" xmlns="http://www.w3.org/2000/svg" xmlns:xlink="http://www.w3.org/1999/xlink" x="0px" y="0px"
	 width="12.061px" height="17px" viewBox="0 0 12.061 17" enable-background="new 0 0 12.061 17" xml:space="preserve">
<path fill="#010101" d="M7.018,7.322c0,0-0.526,0.678-0.986,0.678c-0.44,0-0.988-0.678-0.988-0.678l-0.01-0.01l-4.772-5.38
	c-0.348-0.441-0.348-1.162,0-1.602c0.349-0.44,0.918-0.44,1.267,0L6.03,4.835l4.503-4.505c0.35-0.44,0.918-0.44,1.267,0
	c0.348,0.44,0.348,1.16,0,1.601L7.027,7.312L7.018,7.322L7.018,7.322z M7.018,16.322c0,0-0.526,0.678-0.986,0.678
	c-0.44,0-0.988-0.678-0.988-0.678l-0.01-0.01l-4.772-5.381c-0.348-0.441-0.348-1.162,0-1.602c0.349-0.44,0.918-0.44,1.267,0
	l4.503,4.505l4.503-4.505c0.35-0.44,0.918-0.44,1.267,0c0.348,0.439,0.348,1.16,0,1.602l-4.772,5.381L7.018,16.322L7.018,16.322z"/>
</svg>
