<?xml version="1.0" encoding="utf-8"?>
<!-- Generator: Adobe Illustrator 16.0.0, SVG Export Plug-In . SVG Version: 6.00 Build 0)  -->
<!DOCTYPE svg PUBLIC "-//W3C//DTD SVG 1.1//EN" "http://www.w3.org/Graphics/SVG/1.1/DTD/svg11.dtd">
<svg version="1.1" id="Layer_1" xmlns="http://www.w3.org/2000/svg" xmlns:xlink="http://www.w3.org/1999/xlink" x="0px" y="0px"
	 width="3px" height="14px" viewBox="0 0 3 14" enable-background="new 0 0 3 14" xml:space="preserve">
<path fill="#FFFFFF" d="M2.971,0v5.482c0,0.588-0.039,1.171-0.113,1.75C2.779,7.825,2.68,8.415,2.561,9H0.41
	C0.287,8.4,0.188,7.81,0.113,7.232C0.037,6.652,0,6.067,0,5.482V0H2.971z"/>
<path fill="#FFFFFF" d="M0,12.5c-0.004-0.397,0.151-0.778,0.43-1.061c0.436-0.437,1.092-0.563,1.658-0.32
	c0.182,0.078,0.342,0.185,0.477,0.32c0.138,0.134,0.244,0.292,0.32,0.473C2.962,12.094,3,12.289,3,12.5
	c0,0.21-0.038,0.408-0.115,0.592c-0.146,0.362-0.435,0.648-0.797,0.794C1.901,13.963,1.701,14.001,1.5,14
	c-0.216,0-0.415-0.038-0.598-0.114c-0.357-0.148-0.643-0.435-0.787-0.794C0.037,12.904-0.002,12.703,0,12.5z"/>
</svg>
