<?xml version="1.0" encoding="utf-8"?>
<!-- Generator: Adobe Illustrator 16.0.0, SVG Export Plug-In . SVG Version: 6.00 Build 0)  -->
<!DOCTYPE svg PUBLIC "-//W3C//DTD SVG 1.1//EN" "http://www.w3.org/Graphics/SVG/1.1/DTD/svg11.dtd">
<svg version="1.1" id="Layer_1" xmlns="http://www.w3.org/2000/svg" xmlns:xlink="http://www.w3.org/1999/xlink" x="0px" y="0px"
	 width="10.813px" height="20px" viewBox="0 0 10.813 20" enable-background="new 0 0 10.813 20" xml:space="preserve">
<path fill="#FFFFFF" d="M10.406,0.004L7.813,0C4.898,0,3.016,1.932,3.016,4.922v2.27H0.408C0.184,7.192,0,7.374,0,7.599v3.289
	c0,0.225,0.184,0.407,0.408,0.407h2.607v8.297C3.016,19.818,3.198,20,3.423,20h3.403c0.225,0,0.406-0.184,0.406-0.408v-8.297h3.051
	c0.225,0,0.406-0.182,0.406-0.407l0.002-3.289c0-0.226-0.182-0.408-0.407-0.408c-0.001,0-0.001,0-0.001,0H7.232V5.268
	c0-0.925,0.221-1.394,1.426-1.394l1.746-0.001c0.227,0,0.408-0.183,0.408-0.408V0.412C10.813,0.187,10.631,0.004,10.406,0.004
	L10.406,0.004z"/>
</svg>
