<svg xmlns="http://www.w3.org/2000/svg" width="328" height="133" viewBox="0 0 328 133">
    <g fill="none" fill-rule="evenodd">
        <path fill="#FFF" d="M178.659 58.366c-.908.402-1.881.674-2.905.796a5.073 5.073 0 0 0 2.224-2.793c-.98.579-2.062.999-3.214 1.227A5.048 5.048 0 0 0 171.072 56a5.055 5.055 0 0 0-4.928 6.2 14.369 14.369 0 0 1-10.426-5.277 5.007 5.007 0 0 0-.684 2.539c0 1.752.894 3.299 2.25 4.203a5.065 5.065 0 0 1-2.292-.634v.063a5.058 5.058 0 0 0 4.057 4.953c-.423.114-.87.177-1.332.177-.327 0-.643-.032-.953-.094a5.06 5.06 0 0 0 4.725 3.508 10.159 10.159 0 0 1-6.282 2.159c-.409 0-.811-.025-1.207-.07A14.314 14.314 0 0 0 161.754 76c9.305 0 14.392-7.696 14.392-14.37l-.017-.654a10.093 10.093 0 0 0 2.53-2.61z"/>
        <path fill="#FD5454" d="M178.659 108.366c-.908.402-1.881.674-2.905.796a5.073 5.073 0 0 0 2.224-2.793c-.98.579-2.062.999-3.214 1.227a5.048 5.048 0 0 0-3.692-1.596 5.055 5.055 0 0 0-4.928 6.2 14.369 14.369 0 0 1-10.426-5.277 5.007 5.007 0 0 0-.684 2.539c0 1.752.894 3.299 2.25 4.203a5.065 5.065 0 0 1-2.292-.634v.063a5.058 5.058 0 0 0 4.057 4.953c-.423.114-.87.177-1.332.177-.327 0-.643-.032-.953-.094a5.06 5.06 0 0 0 4.725 3.508 10.159 10.159 0 0 1-6.282 2.159c-.409 0-.811-.025-1.207-.07a14.314 14.314 0 0 0 7.754 2.273c9.305 0 14.392-7.696 14.392-14.37l-.017-.654a10.093 10.093 0 0 0 2.53-2.61z"/>
        <path fill="#FFF" d="M208.567 56h14.866c1.412 0 2.567 1.045 2.567 2.567v14.866c0 1.522-1.155 2.567-2.567 2.567h-14.866c-1.412 0-2.567-1.045-2.567-2.567V58.567c0-1.522 1.155-2.567 2.567-2.567zm12.002 2.222a.91.91 0 0 0-.9.916v2.193a.91.91 0 0 0 .9.916h2.26c.496 0 .901-.412.901-.916v-2.193a.91.91 0 0 0-.9-.916h-2.26zm3.17 6.236h-1.76a5.85 5.85 0 0 1 .257 1.716c0 3.326-2.784 6.023-6.217 6.023s-6.216-2.697-6.216-6.023c0-.597.09-1.173.256-1.716h-1.837v8.448c0 .437.358.795.796.795h13.927a.797.797 0 0 0 .795-.795v-8.448zm-7.72-2.393c-2.218 0-4.017 1.742-4.017 3.892s1.799 3.892 4.017 3.892c2.218 0 4.017-1.743 4.017-3.892 0-2.15-1.799-3.892-4.017-3.892z"/>
        <path fill="#FD5454" d="M208.567 106h14.866c1.412 0 2.567 1.045 2.567 2.567v14.866c0 1.522-1.155 2.567-2.567 2.567h-14.866c-1.412 0-2.567-1.045-2.567-2.567v-14.866c0-1.522 1.155-2.567 2.567-2.567zm12.002 2.222a.91.91 0 0 0-.9.916v2.193a.91.91 0 0 0 .9.916h2.26c.496 0 .901-.412.901-.916v-2.193a.91.91 0 0 0-.9-.916h-2.26zm3.17 6.236h-1.76a5.85 5.85 0 0 1 .257 1.716c0 3.326-2.784 6.023-6.217 6.023s-6.216-2.697-6.216-6.023c0-.597.09-1.173.256-1.716h-1.837v8.448c0 .437.358.795.796.795h13.927a.797.797 0 0 0 .795-.795v-8.448zm-7.72-2.393c-2.218 0-4.017 1.742-4.017 3.892s1.799 3.892 4.017 3.892c2.218 0 4.017-1.743 4.017-3.892 0-2.15-1.799-3.892-4.017-3.892z"/>
        <path fill="#000" d="M255 59.497C255 53.702 259.932 49 266 49c6.076 0 11 4.696 11 10.497v13.006C277 78.298 272.068 83 266 83c-6.076 0-11-4.696-11-10.497V59.497zm2 0v13.006C257 77.2 261.03 81 266 81c4.96 0 9-3.804 9-8.497V59.497C275 54.8 270.97 51 266 51c-4.96 0-9 3.804-9 8.497zm7 .501c0-1.103.888-1.998 2-1.998 1.105 0 2 .887 2 1.998v4.004A1.994 1.994 0 0 1 266 66c-1.105 0-2-.887-2-1.998v-4.004z"/>
        <path fill="#FD5454" d="M255 109.497C255 103.702 259.932 99 266 99c6.076 0 11 4.696 11 10.497v13.006c0 5.795-4.932 10.497-11 10.497-6.076 0-11-4.696-11-10.497v-13.006zm2 0v13.006c0 4.697 4.03 8.497 9 8.497 4.96 0 9-3.804 9-8.497v-13.006c0-4.697-4.03-8.497-9-8.497-4.96 0-9 3.804-9 8.497zm7 .501c0-1.103.888-1.998 2-1.998 1.105 0 2 .887 2 1.998v4.004a1.994 1.994 0 0 1-2 1.998c-1.105 0-2-.887-2-1.998v-4.004z"/>
        <path fill="#000" d="M317.018 65.322s-.527.678-.987.678c-.44 0-.988-.678-.988-.678l-.01-.01-4.772-5.38c-.348-.441-.348-1.162 0-1.602.348-.44.918-.44 1.266 0l4.503 4.505 4.503-4.505c.35-.44.918-.44 1.267 0 .348.44.348 1.16 0 1.601l-4.773 5.381-.009.01zm0 9s-.527.678-.987.678c-.44 0-.988-.678-.988-.678l-.01-.01-4.772-5.38c-.348-.441-.348-1.162 0-1.602.348-.44.918-.44 1.266 0l4.503 4.505 4.503-4.505c.35-.44.918-.44 1.267 0 .348.44.348 1.16 0 1.601l-4.773 5.381-.009.01z"/>
        <path fill="#FD5454" d="M317.018 115.322s-.527.678-.987.678c-.44 0-.988-.678-.988-.678l-.01-.01-4.772-5.38c-.348-.441-.348-1.162 0-1.602.348-.44.918-.44 1.266 0l4.503 4.505 4.503-4.505c.35-.44.918-.44 1.267 0 .348.44.348 1.16 0 1.601l-4.773 5.381-.009.01zm0 9s-.527.678-.987.678c-.44 0-.988-.678-.988-.678l-.01-.01-4.772-5.38c-.348-.441-.348-1.162 0-1.602.348-.44.918-.44 1.266 0l4.503 4.505 4.503-4.505c.35-.44.918-.44 1.267 0 .348.44.348 1.16 0 1.601l-4.773 5.381-.009.01z"/>
        <path fill="#FFF" d="M67.789 65.667l9.546 9.546-2.122 2.122-9.546-9.546-9.546 9.546L54 75.213l9.546-9.546L54 56.121 56.121 54l9.546 9.546L75.213 54l2.122 2.121-9.546 9.546z"/>
        <path fill="#FD5454" d="M67.789 115.667l9.546 9.546-2.122 2.122-9.546-9.546-9.546 9.546L54 125.213l9.546-9.546L54 106.121 56.121 104l9.546 9.546L75.213 104l2.122 2.121-9.546 9.546z"/>
        <path fill="#FFF" d="M4 55h24v3H4v-3zm0 9.5h24v3H4v-3zm0 9h24v3H4v-3z"/>
        <path fill="#FD5454" d="M4 105h24v3H4v-3zm0 9.5h24v3H4v-3zm0 9h24v3H4v-3z"/>
        <path fill="#FFF" d="M121.406 56.004L118.812 56c-2.913 0-4.796 1.932-4.796 4.922v2.27h-2.608a.408.408 0 0 0-.408.407v3.289c0 .225.183.407.408.407h2.608v8.297c0 .226.182.408.407.408h3.403a.408.408 0 0 0 .407-.408v-8.297h3.05a.408.408 0 0 0 .407-.407l.002-3.289a.408.408 0 0 0-.409-.408h-3.05v-1.923c0-.925.22-1.394 1.425-1.394l1.747-.001a.408.408 0 0 0 .408-.408v-3.053a.408.408 0 0 0-.407-.408z"/>
        <path fill="#FD5454" d="M121.406 106.004l-2.594-.004c-2.913 0-4.796 1.932-4.796 4.922v2.27h-2.608a.408.408 0 0 0-.408.407v3.289c0 .225.183.407.408.407h2.608v8.297c0 .226.182.408.407.408h3.403a.408.408 0 0 0 .407-.408v-8.297h3.05a.408.408 0 0 0 .407-.407l.002-3.289a.408.408 0 0 0-.409-.408h-3.05v-1.923c0-.925.22-1.394 1.425-1.394l1.747-.001a.408.408 0 0 0 .408-.408v-3.053a.408.408 0 0 0-.407-.408z"/>
        <path fill="#FFF" d="M217.97 9v5.482c0 .588-.038 1.171-.113 1.75A24.683 24.683 0 0 1 217.56 18h-2.15c-.123-.6-.222-1.19-.297-1.768a13.567 13.567 0 0 1-.113-1.75V9h2.97zM215 21.5a1.493 1.493 0 0 1 .43-1.061 1.502 1.502 0 0 1 1.658-.32c.182.078.341.185.477.32.137.134.243.292.32.473.077.182.115.377.115.588 0 .21-.038.408-.115.592a1.442 1.442 0 0 1-.797.794 1.509 1.509 0 0 1-.588.114c-.216 0-.415-.038-.597-.114a1.443 1.443 0 0 1-.788-.794A1.525 1.525 0 0 1 215 21.5zM119.322 17.018s.678-.527.678-.987c0-.44-.678-.988-.678-.988l-.01-.01-5.38-4.772c-.441-.348-1.162-.348-1.602 0-.44.348-.44.918 0 1.266l4.505 4.503-4.505 4.503c-.44.35-.44.918 0 1.267.44.348 1.16.348 1.601 0l5.381-4.773.01-.009M165.043 19.322s.527.678.987.678c.44 0 .988-.678.988-.678l.01-.01 4.772-5.38c.348-.441.348-1.162 0-1.602-.348-.44-.919-.44-1.266 0l-4.504 4.505-4.502-4.505c-.35-.44-.918-.44-1.267 0-.348.44-.348 1.16 0 1.601l4.772 5.381.01.01M263.154 22.588l.107.107L275 10.956 273.044 9l-10.068 10.068-4.02-4.02L257 17.002l5.87 5.87.284-.285zM62.678 17.018S62 16.491 62 16.031c0-.44.678-.988.678-.988l.01-.01 5.38-4.772c.441-.348 1.162-.348 1.602 0 .44.348.44.918 0 1.266l-4.505 4.503 4.505 4.503c.44.35.44.918 0 1.267-.44.348-1.16.348-1.601 0l-5.381-4.773-.01-.009M6.4 32L0 25.601 25.6 0 32 6.402 6.4 32"/>
        <path fill="#7BDB4C" d="M311.54 24.805l.143.143 15.652-15.652-2.609-2.608-13.423 13.423-5.36-5.36-2.608 2.608 7.825 7.826.38-.38z"/>
    </g>
</svg>
