<?xml version="1.0" encoding="utf-8"?>
<!-- Generator: Adobe Illustrator 16.0.0, SVG Export Plug-In . SVG Version: 6.00 Build 0)  -->
<!DOCTYPE svg PUBLIC "-//W3C//DTD SVG 1.1//EN" "http://www.w3.org/Graphics/SVG/1.1/DTD/svg11.dtd">
<svg version="1.1" id="Layer_1" xmlns="http://www.w3.org/2000/svg" xmlns:xlink="http://www.w3.org/1999/xlink" x="0px" y="0px"
	 width="20px" height="20px" viewBox="0 0 20 20" enable-background="new 0 0 20 20" xml:space="preserve">
<path fill="#FFFFFF" d="M2.566,0h14.867C18.846,0,20,1.045,20,2.567v14.867C20,18.955,18.846,20,17.434,20H2.566
	C1.154,20,0,18.955,0,17.434V2.567C0,1.045,1.154,0,2.566,0z M14.568,2.222c-0.5,0.005-0.902,0.415-0.899,0.916v2.193
	c-0.003,0.501,0.399,0.911,0.899,0.916h2.261c0.496,0,0.901-0.412,0.901-0.916V3.138c0.003-0.501-0.399-0.911-0.9-0.916h-2.26
	H14.568z M17.738,8.458h-1.76c0.171,0.556,0.258,1.134,0.258,1.716c0,3.326-2.784,6.023-6.217,6.023
	c-3.434,0-6.217-2.697-6.217-6.023c0-0.597,0.09-1.173,0.256-1.716H2.223v8.448c0,0.438,0.357,0.795,0.795,0.795h13.928
	c0.438-0.002,0.793-0.356,0.795-0.795V8.458H17.738z M10.02,6.065c-2.219,0-4.018,1.742-4.018,3.892c0,2.15,1.799,3.893,4.018,3.893
	c2.217,0,4.017-1.744,4.017-3.893C14.036,7.807,12.236,6.065,10.02,6.065z"/>
</svg>
