<?xml version="1.0" encoding="utf-8"?>
<!-- Generator: Adobe Illustrator 16.0.0, SVG Export Plug-In . SVG Version: 6.00 Build 0)  -->
<!DOCTYPE svg PUBLIC "-//W3C//DTD SVG 1.1//EN" "http://www.w3.org/Graphics/SVG/1.1/DTD/svg11.dtd">
<svg version="1.1" id="Layer_1" xmlns="http://www.w3.org/2000/svg" xmlns:xlink="http://www.w3.org/1999/xlink" x="0px" y="0px"
	 width="24.659px" height="20px" viewBox="0 0 24.659 20" enable-background="new 0 0 24.659 20" xml:space="preserve">
<path fill="#FFFFFF" d="M24.659,2.366c-0.908,0.402-1.882,0.674-2.905,0.796c1.055-0.631,1.846-1.624,2.225-2.793
	c-0.98,0.579-2.063,0.999-3.215,1.227C19.808,0.576,18.471-0.002,17.072,0c-2.792-0.002-5.057,2.259-5.06,5.051
	c-0.001,0.387,0.044,0.772,0.132,1.149C8.078,5.998,4.289,4.08,1.718,0.923C1.268,1.693,1.031,2.57,1.034,3.462
	c0,1.752,0.894,3.299,2.25,4.203C2.48,7.639,1.695,7.421,0.992,7.031v0.063C0.994,9.5,2.691,11.57,5.049,12.047
	c-0.423,0.114-0.869,0.178-1.332,0.178c-0.326,0-0.643-0.033-0.953-0.095c0.664,2.06,2.563,3.47,4.726,3.509
	c-1.793,1.402-4.005,2.163-6.282,2.158c-0.409,0-0.811-0.025-1.207-0.07C2.313,19.213,5.005,20.002,7.754,20
	c9.305,0,14.393-7.695,14.393-14.37l-0.018-0.654C23.123,4.266,23.98,3.382,24.659,2.366z"/>
</svg>
